<svg width="29" height="30" viewBox="0 0 29 30" fill="none" xmlns="http://www.w3.org/2000/svg">
<path d="M26.6704 0.000209743H2.354C2.08066 -0.00375713 1.80925 0.0485803 1.55527 0.154233C1.30129 0.259886 1.06971 0.416785 0.873765 0.615969C0.677819 0.815153 0.521341 1.05272 0.413267 1.31511C0.305193 1.57749 0.247641 1.85955 0.243896 2.14518V27.8548C0.247641 28.1404 0.305193 28.4225 0.413267 28.6849C0.521341 28.9473 0.677819 29.1848 0.873765 29.384C1.06971 29.5832 1.30129 29.7401 1.55527 29.8458C1.80925 29.9514 2.08066 30.0038 2.354 29.9998H26.6704C26.9437 30.0038 27.2151 29.9514 27.4691 29.8458C27.7231 29.7401 27.9547 29.5832 28.1506 29.384C28.3466 29.1848 28.503 28.9473 28.6111 28.6849C28.7192 28.4225 28.7767 28.1404 28.7805 27.8548V2.14518C28.7767 1.85955 28.7192 1.57749 28.6111 1.31511C28.503 1.05272 28.3466 0.815153 28.1506 0.615969C27.9547 0.416785 27.7231 0.259886 27.4691 0.154233C27.2151 0.0485803 26.9437 -0.00375713 26.6704 0.000209743ZM8.89961 25.1099H4.59329V11.61H8.89961V25.1099ZM6.74645 9.72007C6.15255 9.72007 5.58298 9.47354 5.16303 9.03471C4.74308 8.59588 4.50716 8.0007 4.50716 7.38011C4.50716 6.75951 4.74308 6.16433 5.16303 5.7255C5.58298 5.28667 6.15255 5.04014 6.74645 5.04014C7.06181 5.00277 7.38117 5.03542 7.68361 5.13596C7.98606 5.23651 8.26477 5.40267 8.5015 5.62357C8.73823 5.84448 8.92764 6.11514 9.05732 6.41784C9.18701 6.72054 9.25405 7.04846 9.25405 7.38011C9.25405 7.71176 9.18701 8.03967 9.05732 8.34237C8.92764 8.64507 8.73823 8.91574 8.5015 9.13664C8.26477 9.35754 7.98606 9.52371 7.68361 9.62425C7.38117 9.72479 7.06181 9.75745 6.74645 9.72007ZM24.4311 25.1099H20.1248V17.865C20.1248 16.05 19.5075 14.865 17.9429 14.865C17.4587 14.8687 16.9872 15.0274 16.5919 15.3198C16.1967 15.6121 15.8967 16.024 15.7323 16.5C15.62 16.8525 15.5713 17.2238 15.5888 17.595V25.0949H11.2824C11.2824 25.0949 11.2824 12.825 11.2824 11.595H15.5888V13.5C15.98 12.7907 16.5489 12.2063 17.2344 11.8098C17.9199 11.4134 18.6959 11.2198 19.4788 11.2501C22.3497 11.2501 24.4311 13.185 24.4311 17.34V25.1099Z" fill="url(#paint0_linear_31_168)"/>
<defs>
<linearGradient id="paint0_linear_31_168" x1="14.5122" y1="0" x2="14.5122" y2="30" gradientUnits="userSpaceOnUse">
<stop stop-color="#7429FF"/>
<stop offset="1" stop-color="#724FFF"/>
</linearGradient>
</defs>
</svg>
