<svg width="232" height="104" viewBox="0 0 232 104" fill="none" xmlns="http://www.w3.org/2000/svg">
<path d="M18.1007 42.9295C21.0038 46.6973 25.8834 48.8594 31.3809 48.8594C35.1488 48.8594 38.1755 47.9328 40.5845 46.1414C42.9935 44.2883 44.1671 41.756 44.1671 38.6058C44.1671 33.7258 41.3258 31.3786 35.1489 28.9079L32.0604 27.6727C30.578 27.1168 29.9602 26.6843 29.9602 26.0047C29.9602 25.2018 30.7014 24.8314 32.1221 24.8314C34.4075 24.8314 36.5694 25.6956 38.6696 27.487L43.673 21.0015C40.7699 17.9749 36.9402 16.4925 32.0604 16.4925C24.8335 16.4925 20.0771 20.0748 20.0771 26.1899C20.0771 31.0696 22.9185 33.6638 29.0336 36.1345L32.4928 37.5554C33.7899 38.1113 34.2839 38.4204 34.2839 39.0996C34.2839 40.0262 33.3574 40.4587 31.5661 40.4587C28.5395 40.4587 25.6981 39.1614 23.042 36.6287L18.1007 42.9295Z" fill="white"/>
<path d="M86.9866 17.2339L80.8098 31.1936L73.4593 16.4925H70.062L62.8969 31.6255L56.5346 17.2339H45.2927L60.4879 48.8594H63.8852L71.7914 34.0964L79.636 48.8594H83.0336L98.2287 17.2339H86.9866Z" fill="white"/>
<path d="M101.832 48.118H112.456V17.2339H101.832V48.118ZM100.596 6.30035C100.596 9.82118 103.438 12.5388 107.082 12.5388C110.727 12.5388 113.63 9.75917 113.63 6.30035C113.63 2.77951 110.727 0 107.082 0C103.438 0 100.596 2.77951 100.596 6.30035Z" fill="white"/>
<path d="M131.802 14.6389C131.802 11.7356 133.222 10.5623 136.867 10.5623C137.237 10.5623 138.04 10.6245 139.276 10.6866V1.79154C137.855 1.29763 136.187 1.05058 134.149 1.05058C125.995 1.05058 121.177 5.37466 121.177 13.5898V17.234H116.854V26.1291H121.177V48.1186H131.802V26.1291H138.04V17.234H131.802V14.6389Z" fill="white"/>
<path d="M158.227 39.3463C154.335 39.3463 152.915 38.2346 152.915 35.2697V26.128H161.192V17.2334H152.915V9.82072H142.29V17.2334H137.596V26.128H142.29V36.3197C142.29 44.6585 147.17 48.8589 155.879 48.8589C157.979 48.8589 160.08 48.6107 162.118 48.1175V39.2229L158.227 39.3463Z" fill="white"/>
<path d="M121.23 54.7631V72.3051C119.191 70.3904 116.597 69.4642 113.324 69.4642C104.799 69.4642 98.4989 76.3204 98.4989 85.7091C98.4989 95.0981 104.676 101.831 113.324 101.831C117.277 101.831 120.242 100.534 122.156 97.8779V101.09H131.854V54.7631H121.23ZM121.415 85.7091C121.415 89.9095 118.698 92.1947 115.424 92.1947C112.026 92.1947 109.37 89.7861 109.37 85.6477C109.37 81.5092 112.15 79.1002 115.424 79.1002C118.698 79.1002 121.415 81.509 121.415 85.7091Z" fill="white"/>
<path d="M166.381 83.1769C166.381 74.2821 161.007 69.4643 152.359 69.4643C146.738 69.4643 142.538 71.4408 138.399 75.6409L143.341 82.3736C146.305 79.7177 148.282 78.606 151.062 78.606C154.274 78.606 155.756 80.1498 155.756 82.5588V83.0531H149.27C141.796 83.0531 137.164 86.5126 137.164 92.2572C137.164 97.4458 141.055 101.831 147.788 101.831C151.432 101.831 154.397 100.719 156.683 98.5575V101.09H166.381V83.1769ZM155.756 89.7858C155.756 92.5654 153.78 94.2952 151.062 94.2952C149.085 94.2952 147.912 93.3687 147.912 91.8862C147.912 90.4038 148.962 89.5391 150.753 89.5391H155.756V89.7858Z" fill="white"/>
<path d="M170.253 95.9009C173.156 99.6691 178.036 101.831 183.534 101.831C187.301 101.831 190.328 100.904 192.737 99.1132C195.146 97.2601 196.32 94.7274 196.32 91.5772C196.32 86.6976 193.479 84.3504 187.301 81.8798L184.213 80.6441C182.731 80.0882 182.113 79.6561 182.113 78.9765C182.113 78.1736 182.854 77.8032 184.275 77.8032C186.56 77.8032 188.722 78.6674 190.822 80.4589L195.826 73.9733C192.923 70.9467 189.093 69.4643 184.213 69.4643C176.986 69.4643 172.23 73.0466 172.23 79.1618C172.23 84.0414 175.071 86.6358 181.187 89.1068L184.645 90.5272C185.942 91.0831 186.437 91.3919 186.437 92.0715C186.437 92.998 185.51 93.4305 183.719 93.4305C180.692 93.4305 177.851 92.1332 175.195 89.6006L170.253 95.9009Z" fill="white"/>
<path d="M231.347 82.0649C231.347 74.529 226.652 69.4642 219.796 69.4642C216.646 69.4642 213.928 70.4524 211.766 72.3675V54.7631H201.141V101.09H211.766V83.6092C211.766 80.8912 213.557 79.0379 216.214 79.0379C218.869 79.0379 220.722 80.8912 220.722 83.6092V101.09H231.347V82.0649Z" fill="white"/>
<path d="M19.1462 69.4046V69.4526C8.42369 69.9079 0.00135567 77.5055 0 86.7258C0 95.9465 8.42277 103.546 19.1462 104H20.1389H20.3273H71.3459H71.5345H71.9354C82.8229 103.724 91.484 96.0682 91.4852 86.714C91.484 77.359 82.8229 69.7009 71.9354 69.4275H71.3463H71.1552H20.1393H19.9482L19.1462 69.4046Z" fill="url(#paint0_linear_1_105)"/>
<path d="M91.7459 86.6749C91.7459 91.2377 89.9334 95.614 86.707 98.8404C83.4806 102.067 79.1047 103.879 74.5419 103.879C69.9791 103.879 65.6032 102.067 62.3769 98.8404C59.1505 95.614 57.3379 91.2377 57.3379 86.6749C57.3379 84.4156 57.7828 82.1785 58.6474 80.0912C59.5119 78.0039 60.7792 76.1076 62.3767 74.51C63.9743 72.9124 65.8707 71.6447 67.958 70.7801C70.0454 69.9155 72.2826 69.4706 74.5419 69.4706C76.8012 69.4706 79.0383 69.9155 81.1256 70.7801C83.213 71.6447 85.1096 72.9124 86.7071 74.51C88.3047 76.1076 89.5719 78.0039 90.4365 80.0912C91.301 82.1785 91.746 84.4156 91.7459 86.6749Z" fill="white"/>
<defs>
<linearGradient id="paint0_linear_1_105" x1="17.8805" y1="84.5708" x2="67.9896" y2="85.2995" gradientUnits="userSpaceOnUse">
<stop stop-color="#67EA9C" stop-opacity="0"/>
<stop offset="1" stop-color="#B7F5D0"/>
</linearGradient>
</defs>
</svg>
